<svg xmlns="http://www.w3.org/2000/svg" viewBox="0 0 1600 900" height="100%" width="100%" preserveAspectRatio="none">
    <g>
        <rect x="30" y="30" width="1055" height="840" rx="15" fill="#a0aac2" />
        <rect x="1115" y="30" width="455" height="840" rx="15" fill="#ffffaa" />
    </g>
    <g transform="translate(1075,0)">
        <path d="M 266.847,267.96 L 200.501,334.306 L 201.059,334.864 L 241.039,334.864 L 241.039,578.613 L 200.501,578.613 L 266.235,644.347 L 331.969,578.613 L 291.43,578.613 L 291.43,334.864 L 332.527,334.864 L 333.139,334.252 L 266.847,267.96 Z" fill="#888" stroke="none" stroke-linejoin="miter" stroke-width="0.5" stroke-linecap="round" marker-start="none" marker-end="none"/>
    </g>
    <g transform="translate(250,200)">
    <g transform="scale(5,4)">
        <path d="M60,19.089C22.382,19.089,0.053,60,0.053,60S22.382,100.91,60,100.91S119.947,60,119.947,60S97.618,19.089,60,19.089z
	        M59.999,84.409C46.54,84.409,35.59,73.459,35.59,60c0-13.459,10.95-24.409,24.409-24.409c13.459,0,24.409,10.95,24.409,24.409
	        C84.408,73.459,73.458,84.409,59.999,84.409z"/>
        <circle cx="60" cy="60.583" r="14.409"/>
    </g>
    </g>
</svg>	
